<svg width="40" height="40" viewBox="0 0 40 40" fill="none" xmlns="http://www.w3.org/2000/svg">
<path d="M9.04027 27.6192C15.19 18.3741 23.5392 11.3282 31.8883 4.2417C33.0286 3.26417 34.1689 2.24599 35.7167 2.00162C37.4678 1.71668 39.0155 2.12378 39.7486 3.99733C40.5225 5.99304 39.1784 6.4817 37.6715 7.17406C34.0875 8.84395 31.4403 11.8576 28.5894 14.4642C23.8243 18.8222 18.8963 23.017 15.353 28.4744C13.9683 30.633 12.5427 32.7509 12.0132 35.3165C11.8095 36.4162 11.5246 37.4343 10.3027 37.6786C8.87707 38.0045 8.06259 36.9863 7.3703 36.0088C5.53765 33.2394 4.11205 30.2661 2.89016 27.2117C2.07569 25.1346 1.42398 22.9762 0.691031 20.8583C0.405802 20.0844 0.365176 19.3106 1.09842 18.8626C2.03507 18.2518 2.89049 18.7404 3.42002 19.5143C4.19391 20.614 4.84562 21.7949 5.45638 22.9762C6.35209 24.687 6.92228 26.6013 9.04017 27.6194L9.04027 27.6192Z" fill="#FACD6E"/>
</svg>
